<svg width="1440" height="79" viewBox="0 0 1440 79" fill="none" xmlns="http://www.w3.org/2000/svg">
<rect x="41.5" y="1.5" width="47" height="47" fill="#964C09" stroke="#131313" stroke-width="3"/>
<path d="M55.1973 1.5L53.0254 13.2266L52.9033 13.8848L53.3115 14.415L57.9414 20.4346L57.0088 28.834L57.0059 28.8633L57.0039 28.8936L55.6035 48.5H1.5V1.5H55.1973Z" fill="#964C09" stroke="#131313" stroke-width="3"/>
<path d="M71.0732 29.4639L80.4092 34.1318L81.0186 33.9072L88.5 31.1504V77.5H41.5V30.2949L57.0322 28.0107L71.0732 29.4639Z" fill="#964C09" stroke="#131313" stroke-width="3"/>
<path d="M48.7998 30.3203L50.5 36.6963V42.8574L48.5264 53.2197L48.4756 53.4873L48.5225 53.7568L50.5 65.127V72.2744L48.8926 77.5H1.5V30.7607L15.2607 32.9805L15.3799 33H32.3184L32.6094 32.8711L41.1982 29.0537L48.7998 30.3203Z" fill="#964C09" stroke="#131313" stroke-width="3"/>
<rect x="1433.5" y="1.5" width="47" height="47" fill="#964C09" stroke="#131313" stroke-width="3"/>
<path d="M1447.2 1.5L1445.03 13.2266L1444.9 13.8848L1445.31 14.415L1449.94 20.4346L1449.01 28.834L1449.01 28.8633L1449 28.8936L1447.6 48.5H1393.5V1.5H1447.2Z" fill="#964C09" stroke="#131313" stroke-width="3"/>
<path d="M1463.07 29.4639L1472.41 34.1318L1473.02 33.9072L1480.5 31.1504V77.5H1433.5V30.2949L1449.03 28.0107L1463.07 29.4639Z" fill="#964C09" stroke="#131313" stroke-width="3"/>
<path d="M1440.8 30.3203L1442.5 36.6963V42.8574L1440.53 53.2197L1440.48 53.4873L1440.52 53.7568L1442.5 65.127V72.2744L1440.89 77.5H1393.5V30.7607L1407.26 32.9805L1407.38 33H1424.32L1424.61 32.8711L1433.2 29.0537L1440.8 30.3203Z" fill="#964C09" stroke="#131313" stroke-width="3"/>
<rect x="737.5" y="1.5" width="47" height="47" fill="#964C09" stroke="#131313" stroke-width="3"/>
<path d="M751.197 1.5L749.025 13.2266L748.903 13.8848L749.312 14.415L753.941 20.4346L753.009 28.834L753.006 28.8633L753.004 28.8936L751.604 48.5H697.5V1.5H751.197Z" fill="#964C09" stroke="#131313" stroke-width="3"/>
<path d="M767.073 29.4639L776.409 34.1318L777.019 33.9072L784.5 31.1504V77.5H737.5V30.2949L753.032 28.0107L767.073 29.4639Z" fill="#964C09" stroke="#131313" stroke-width="3"/>
<path d="M744.8 30.3203L746.5 36.6963V42.8574L744.526 53.2197L744.476 53.4873L744.522 53.7568L746.5 65.127V72.2744L744.893 77.5H697.5V30.7607L711.261 32.9805L711.38 33H728.318L728.609 32.8711L737.198 29.0537L744.8 30.3203Z" fill="#964C09" stroke="#131313" stroke-width="3"/>
<rect x="389.5" y="1.5" width="47" height="47" fill="#964C09" stroke="#131313" stroke-width="3"/>
<path d="M403.197 1.5L401.025 13.2266L400.903 13.8848L401.312 14.415L405.941 20.4346L405.009 28.834L405.006 28.8633L405.004 28.8936L403.604 48.5H349.5V1.5H403.197Z" fill="#964C09" stroke="#131313" stroke-width="3"/>
<path d="M419.073 29.4639L428.409 34.1318L429.019 33.9072L436.5 31.1504V77.5H389.5V30.2949L405.032 28.0107L419.073 29.4639Z" fill="#964C09" stroke="#131313" stroke-width="3"/>
<path d="M396.8 30.3203L398.5 36.6963V42.8574L396.526 53.2197L396.476 53.4873L396.522 53.7568L398.5 65.127V72.2744L396.893 77.5H349.5V30.7607L363.261 32.9805L363.38 33H380.318L380.609 32.8711L389.198 29.0537L396.8 30.3203Z" fill="#964C09" stroke="#131313" stroke-width="3"/>
<rect x="1085.5" y="1.5" width="47" height="47" fill="#964C09" stroke="#131313" stroke-width="3"/>
<path d="M1099.2 1.5L1097.03 13.2266L1096.9 13.8848L1097.31 14.415L1101.94 20.4346L1101.01 28.834L1101.01 28.8633L1101 28.8936L1099.6 48.5H1045.5V1.5H1099.2Z" fill="#964C09" stroke="#131313" stroke-width="3"/>
<path d="M1115.07 29.4639L1124.41 34.1318L1125.02 33.9072L1132.5 31.1504V77.5H1085.5V30.2949L1101.03 28.0107L1115.07 29.4639Z" fill="#964C09" stroke="#131313" stroke-width="3"/>
<path d="M1092.8 30.3203L1094.5 36.6963V42.8574L1092.53 53.2197L1092.48 53.4873L1092.52 53.7568L1094.5 65.127V72.2744L1092.89 77.5H1045.5V30.7607L1059.26 32.9805L1059.38 33H1076.32L1076.61 32.8711L1085.2 29.0537L1092.8 30.3203Z" fill="#964C09" stroke="#131313" stroke-width="3"/>
<rect x="215.5" y="1.5" width="47" height="47" fill="#964C09" stroke="#131313" stroke-width="3"/>
<path d="M229.197 1.5L227.025 13.2266L226.903 13.8848L227.312 14.415L231.941 20.4346L231.009 28.834L231.006 28.8633L231.004 28.8936L229.604 48.5H175.5V1.5H229.197Z" fill="#964C09" stroke="#131313" stroke-width="3"/>
<path d="M245.073 29.4639L254.409 34.1318L255.019 33.9072L262.5 31.1504V77.5H215.5V30.2949L231.032 28.0107L245.073 29.4639Z" fill="#964C09" stroke="#131313" stroke-width="3"/>
<path d="M222.8 30.3203L224.5 36.6963V42.8574L222.526 53.2197L222.476 53.4873L222.522 53.7568L224.5 65.127V72.2744L222.893 77.5H175.5V30.7607L189.261 32.9805L189.38 33H206.318L206.609 32.8711L215.198 29.0537L222.8 30.3203Z" fill="#964C09" stroke="#131313" stroke-width="3"/>
<rect x="911.5" y="1.5" width="47" height="47" fill="#964C09" stroke="#131313" stroke-width="3"/>
<path d="M925.197 1.5L923.025 13.2266L922.903 13.8848L923.312 14.415L927.941 20.4346L927.009 28.834L927.006 28.8633L927.004 28.8936L925.604 48.5H871.5V1.5H925.197Z" fill="#964C09" stroke="#131313" stroke-width="3"/>
<path d="M941.073 29.4639L950.409 34.1318L951.019 33.9072L958.5 31.1504V77.5H911.5V30.2949L927.032 28.0107L941.073 29.4639Z" fill="#964C09" stroke="#131313" stroke-width="3"/>
<path d="M918.8 30.3203L920.5 36.6963V42.8574L918.526 53.2197L918.476 53.4873L918.522 53.7568L920.5 65.127V72.2744L918.893 77.5H871.5V30.7607L885.261 32.9805L885.38 33H902.318L902.609 32.8711L911.198 29.0537L918.8 30.3203Z" fill="#964C09" stroke="#131313" stroke-width="3"/>
<rect x="563.5" y="1.5" width="47" height="47" fill="#964C09" stroke="#131313" stroke-width="3"/>
<path d="M577.197 1.5L575.025 13.2266L574.903 13.8848L575.312 14.415L579.941 20.4346L579.009 28.834L579.006 28.8633L579.004 28.8936L577.604 48.5H523.5V1.5H577.197Z" fill="#964C09" stroke="#131313" stroke-width="3"/>
<path d="M593.073 29.4639L602.409 34.1318L603.019 33.9072L610.5 31.1504V77.5H563.5V30.2949L579.032 28.0107L593.073 29.4639Z" fill="#964C09" stroke="#131313" stroke-width="3"/>
<path d="M570.8 30.3203L572.5 36.6963V42.8574L570.526 53.2197L570.476 53.4873L570.522 53.7568L572.5 65.127V72.2744L570.893 77.5H523.5V30.7607L537.261 32.9805L537.38 33H554.318L554.609 32.8711L563.198 29.0537L570.8 30.3203Z" fill="#964C09" stroke="#131313" stroke-width="3"/>
<rect x="1259.5" y="1.5" width="47" height="47" fill="#964C09" stroke="#131313" stroke-width="3"/>
<path d="M1273.2 1.5L1271.03 13.2266L1270.9 13.8848L1271.31 14.415L1275.94 20.4346L1275.01 28.834L1275.01 28.8633L1275 28.8936L1273.6 48.5H1219.5V1.5H1273.2Z" fill="#964C09" stroke="#131313" stroke-width="3"/>
<path d="M1289.07 29.4639L1298.41 34.1318L1299.02 33.9072L1306.5 31.1504V77.5H1259.5V30.2949L1275.03 28.0107L1289.07 29.4639Z" fill="#964C09" stroke="#131313" stroke-width="3"/>
<path d="M1266.8 30.3203L1268.5 36.6963V42.8574L1266.53 53.2197L1266.48 53.4873L1266.52 53.7568L1268.5 65.127V72.2744L1266.89 77.5H1219.5V30.7607L1233.26 32.9805L1233.38 33H1250.32L1250.61 32.8711L1259.2 29.0537L1266.8 30.3203Z" fill="#964C09" stroke="#131313" stroke-width="3"/>
<rect x="128.5" y="1.5" width="47" height="47" fill="#964C09" stroke="#131313" stroke-width="3"/>
<path d="M142.197 1.5L140.025 13.2266L139.903 13.8848L140.312 14.415L144.941 20.4346L144.009 28.834L144.006 28.8633L144.004 28.8936L142.604 48.5H88.5V1.5H142.197Z" fill="#964C09" stroke="#131313" stroke-width="3"/>
<path d="M158.073 29.4639L167.409 34.1318L168.019 33.9072L175.5 31.1504V77.5H128.5V30.2949L144.032 28.0107L158.073 29.4639Z" fill="#964C09" stroke="#131313" stroke-width="3"/>
<path d="M135.8 30.3203L137.5 36.6963V42.8574L135.526 53.2197L135.476 53.4873L135.522 53.7568L137.5 65.127V72.2744L135.893 77.5H88.5V30.7607L102.261 32.9805L102.38 33H119.318L119.609 32.8711L128.198 29.0537L135.8 30.3203Z" fill="#964C09" stroke="#131313" stroke-width="3"/>
<rect x="824.5" y="1.5" width="47" height="47" fill="#964C09" stroke="#131313" stroke-width="3"/>
<path d="M838.197 1.5L836.025 13.2266L835.903 13.8848L836.312 14.415L840.941 20.4346L840.009 28.834L840.006 28.8633L840.004 28.8936L838.604 48.5H784.5V1.5H838.197Z" fill="#964C09" stroke="#131313" stroke-width="3"/>
<path d="M854.073 29.4639L863.409 34.1318L864.019 33.9072L871.5 31.1504V77.5H824.5V30.2949L840.032 28.0107L854.073 29.4639Z" fill="#964C09" stroke="#131313" stroke-width="3"/>
<path d="M831.8 30.3203L833.5 36.6963V42.8574L831.526 53.2197L831.476 53.4873L831.522 53.7568L833.5 65.127V72.2744L831.893 77.5H784.5V30.7607L798.261 32.9805L798.38 33H815.318L815.609 32.8711L824.198 29.0537L831.8 30.3203Z" fill="#964C09" stroke="#131313" stroke-width="3"/>
<rect x="476.5" y="1.5" width="47" height="47" fill="#964C09" stroke="#131313" stroke-width="3"/>
<path d="M490.197 1.5L488.025 13.2266L487.903 13.8848L488.312 14.415L492.941 20.4346L492.009 28.834L492.006 28.8633L492.004 28.8936L490.604 48.5H436.5V1.5H490.197Z" fill="#964C09" stroke="#131313" stroke-width="3"/>
<path d="M506.073 29.4639L515.409 34.1318L516.019 33.9072L523.5 31.1504V77.5H476.5V30.2949L492.032 28.0107L506.073 29.4639Z" fill="#964C09" stroke="#131313" stroke-width="3"/>
<path d="M483.8 30.3203L485.5 36.6963V42.8574L483.526 53.2197L483.476 53.4873L483.522 53.7568L485.5 65.127V72.2744L483.893 77.5H436.5V30.7607L450.261 32.9805L450.38 33H467.318L467.609 32.8711L476.198 29.0537L483.8 30.3203Z" fill="#964C09" stroke="#131313" stroke-width="3"/>
<rect x="1172.5" y="1.5" width="47" height="47" fill="#964C09" stroke="#131313" stroke-width="3"/>
<path d="M1186.2 1.5L1184.03 13.2266L1183.9 13.8848L1184.31 14.415L1188.94 20.4346L1188.01 28.834L1188.01 28.8633L1188 28.8936L1186.6 48.5H1132.5V1.5H1186.2Z" fill="#964C09" stroke="#131313" stroke-width="3"/>
<path d="M1202.07 29.4639L1211.41 34.1318L1212.02 33.9072L1219.5 31.1504V77.5H1172.5V30.2949L1188.03 28.0107L1202.07 29.4639Z" fill="#964C09" stroke="#131313" stroke-width="3"/>
<path d="M1179.8 30.3203L1181.5 36.6963V42.8574L1179.53 53.2197L1179.48 53.4873L1179.52 53.7568L1181.5 65.127V72.2744L1179.89 77.5H1132.5V30.7607L1146.26 32.9805L1146.38 33H1163.32L1163.61 32.8711L1172.2 29.0537L1179.8 30.3203Z" fill="#964C09" stroke="#131313" stroke-width="3"/>
<rect x="302.5" y="1.5" width="47" height="47" fill="#964C09" stroke="#131313" stroke-width="3"/>
<path d="M316.197 1.5L314.025 13.2266L313.903 13.8848L314.312 14.415L318.941 20.4346L318.009 28.834L318.006 28.8633L318.004 28.8936L316.604 48.5H262.5V1.5H316.197Z" fill="#964C09" stroke="#131313" stroke-width="3"/>
<path d="M332.073 29.4639L341.409 34.1318L342.019 33.9072L349.5 31.1504V77.5H302.5V30.2949L318.032 28.0107L332.073 29.4639Z" fill="#964C09" stroke="#131313" stroke-width="3"/>
<path d="M309.8 30.3203L311.5 36.6963V42.8574L309.526 53.2197L309.476 53.4873L309.522 53.7568L311.5 65.127V72.2744L309.893 77.5H262.5V30.7607L276.261 32.9805L276.38 33H293.318L293.609 32.8711L302.198 29.0537L309.8 30.3203Z" fill="#964C09" stroke="#131313" stroke-width="3"/>
<rect x="998.5" y="1.5" width="47" height="47" fill="#964C09" stroke="#131313" stroke-width="3"/>
<path d="M1012.2 1.5L1010.03 13.2266L1009.9 13.8848L1010.31 14.415L1014.94 20.4346L1014.01 28.834L1014.01 28.8633L1014 28.8936L1012.6 48.5H958.5V1.5H1012.2Z" fill="#964C09" stroke="#131313" stroke-width="3"/>
<path d="M1028.07 29.4639L1037.41 34.1318L1038.02 33.9072L1045.5 31.1504V77.5H998.5V30.2949L1014.03 28.0107L1028.07 29.4639Z" fill="#964C09" stroke="#131313" stroke-width="3"/>
<path d="M1005.8 30.3203L1007.5 36.6963V42.8574L1005.53 53.2197L1005.48 53.4873L1005.52 53.7568L1007.5 65.127V72.2744L1005.89 77.5H958.5V30.7607L972.261 32.9805L972.38 33H989.318L989.609 32.8711L998.198 29.0537L1005.8 30.3203Z" fill="#964C09" stroke="#131313" stroke-width="3"/>
<rect x="650.5" y="1.5" width="47" height="47" fill="#964C09" stroke="#131313" stroke-width="3"/>
<path d="M664.197 1.5L662.025 13.2266L661.903 13.8848L662.312 14.415L666.941 20.4346L666.009 28.834L666.006 28.8633L666.004 28.8936L664.604 48.5H610.5V1.5H664.197Z" fill="#964C09" stroke="#131313" stroke-width="3"/>
<path d="M680.073 29.4639L689.409 34.1318L690.019 33.9072L697.5 31.1504V77.5H650.5V30.2949L666.032 28.0107L680.073 29.4639Z" fill="#964C09" stroke="#131313" stroke-width="3"/>
<path d="M657.8 30.3203L659.5 36.6963V42.8574L657.526 53.2197L657.476 53.4873L657.522 53.7568L659.5 65.127V72.2744L657.893 77.5H610.5V30.7607L624.261 32.9805L624.38 33H641.318L641.609 32.8711L650.198 29.0537L657.8 30.3203Z" fill="#964C09" stroke="#131313" stroke-width="3"/>
<rect x="1346.5" y="1.5" width="47" height="47" fill="#964C09" stroke="#131313" stroke-width="3"/>
<path d="M1360.2 1.5L1358.03 13.2266L1357.9 13.8848L1358.31 14.415L1362.94 20.4346L1362.01 28.834L1362.01 28.8633L1362 28.8936L1360.6 48.5H1306.5V1.5H1360.2Z" fill="#964C09" stroke="#131313" stroke-width="3"/>
<path d="M1376.07 29.4639L1385.41 34.1318L1386.02 33.9072L1393.5 31.1504V77.5H1346.5V30.2949L1362.03 28.0107L1376.07 29.4639Z" fill="#964C09" stroke="#131313" stroke-width="3"/>
<path d="M1353.8 30.3203L1355.5 36.6963V42.8574L1353.53 53.2197L1353.48 53.4873L1353.52 53.7568L1355.5 65.127V72.2744L1353.89 77.5H1306.5V30.7607L1320.26 32.9805L1320.38 33H1337.32L1337.61 32.8711L1346.2 29.0537L1353.8 30.3203Z" fill="#964C09" stroke="#131313" stroke-width="3"/>
</svg>
