<svg width="97" height="89" viewBox="0 0 97 89" fill="none" xmlns="http://www.w3.org/2000/svg">
<path d="M17.288 76.5085C17.4016 80.3697 24.3726 78.9224 26.9436 78.9224C26.9436 79.9331 27.5771 81.4828 28.9775 81.7162C30.4186 81.9564 30.4191 82.9455 31.9725 82.9455C33.9915 82.9455 38.4444 83.0838 39.9965 84.3536C43.3362 87.0861 46.2108 84.8246 49.2498 82.3644C50.5315 81.3269 51.0699 81.8682 52.3342 82.722C55.5159 84.8707 58.7024 87.371 62.7274 87.371C67.2379 87.371 69.0954 82.8223 72.9417 80.8222C74.1202 80.2094 74.1969 80.6886 74.9086 81.4257C77.5173 84.1275 80.0868 84.4214 83.8043 83.9066C87.0016 83.4639 93.7911 80.7555 94.4656 76.9332C94.7869 75.1124 93.5614 74.1097 93.5045 72.5747C93.4457 70.9859 94.8231 69.3808 94.9127 67.6799C95.1491 63.1877 92.0787 62.297 88.945 59.8347C86.0278 57.5427 94.3331 54.5911 94.108 53.353C93.3586 49.2313 94.1369 44.5813 93.1022 40.5906C92.4764 38.1767 85.3014 39.5146 83.6925 39.8977C81.7104 40.3696 80.8043 40.9789 80.8539 39.0931C80.9241 36.427 80.9615 33.6756 79.7588 31.2256C77.7641 27.1624 74.158 22.208 70.2149 19.8713C68.9493 19.1213 64.2805 17.2107 63.7555 19.6255C63.3218 21.6203 63.8586 23.4414 63.0626 20.1395C62.0278 15.8467 60.4578 10.8451 56.3127 8.58412C54.7228 7.71694 51.7737 7.55424 50.4791 6.25963C48.9943 4.77481 48.1081 3.06117 45.9419 2.34823C45.0256 2.04667 41.4882 1.57991 40.8458 2.77289C40.1961 3.9796 40.1175 6.04099 39.8177 7.35483C39.2207 9.97104 38.733 12.6096 38.119 15.2223C37.9243 16.0511 37.3744 22.1795 35.5934 21.19C34.7894 20.7434 33.9555 21.0251 33.2018 21.3912C30.8176 22.5492 29.3607 23.8984 27.7482 26.0625C26.3873 27.8891 25.3334 29.9135 24.3956 31.9855C24.0727 32.6988 23.8831 33.8974 23.3228 34.4888C22.9945 34.8353 20.5038 32.7796 19.8137 32.7007C17.5754 32.4449 14.1558 32.5765 12.5496 34.4441C10.1004 37.292 10.1225 41.1323 10.0463 44.6361C10.011 46.2615 9.10816 44.6492 8.45941 44.122C7.12668 43.0392 6.70989 42.7139 4.90562 42.7139C4.10471 42.7139 2 42.2064 2 43.3398C2 44.6059 2.1281 45.7527 2.31291 47.0053C2.66853 49.4156 3.4642 50.8542 4.99502 52.7495C5.40268 53.2542 6.07077 53.627 6.33607 54.1576C6.82026 55.126 6.82779 56.1193 6.82779 57.175C6.82779 59.365 7.1437 61.3755 7.45362 63.545C7.70944 65.3358 8.40676 67.6575 6.20197 67.6575C4.9356 67.6575 2.92614 67.7898 2.49172 69.2668C1.81377 71.5718 4.54587 73.2931 6.33607 73.9158C8.97265 74.8328 13.2684 74.0946 16.0811 74.0946C16.9217 74.0946 20.4426 74.0595 17.9138 74.5192C17.056 74.6752 17.2697 75.8876 17.288 76.5085Z" fill="#89CE09" stroke="#131313" stroke-width="3" stroke-linecap="round"/>
<path d="M56 30C59.6607 30 63.4632 34.5033 65.6514 37.2385" stroke="#131313" stroke-width="3" stroke-linecap="round"/>
<path d="M42.6484 34C38.9877 34 35.1853 38.5033 32.9971 41.2385" stroke="#131313" stroke-width="3" stroke-linecap="round"/>
</svg>
