<svg width="42" height="89" viewBox="0 0 42 89" fill="none" xmlns="http://www.w3.org/2000/svg">
<path d="M-37.712 76.5085C-37.5984 80.3697 -30.6274 78.9224 -28.0564 78.9224C-28.0564 79.9331 -27.4229 81.4828 -26.0225 81.7162C-24.5814 81.9564 -24.5809 82.9455 -23.0275 82.9455C-21.0085 82.9455 -16.5556 83.0838 -15.0035 84.3536C-11.6638 87.0861 -8.78925 84.8246 -5.75022 82.3644C-4.46854 81.3269 -3.93012 81.8682 -2.66579 82.722C0.515926 84.8707 3.70242 87.371 7.72737 87.371C12.2379 87.371 14.0954 82.8223 17.9417 80.8222C19.1202 80.2094 19.1969 80.6886 19.9086 81.4257C22.5173 84.1275 25.0868 84.4214 28.8043 83.9066C32.0016 83.4639 38.7911 80.7555 39.4656 76.9332C39.7869 75.1124 38.5614 74.1097 38.5045 72.5747C38.4457 70.9859 39.8231 69.3808 39.9127 67.6799C40.1491 63.1877 37.0787 62.297 33.945 59.8347C31.0278 57.5427 39.3331 54.5911 39.108 53.353C38.3586 49.2313 39.1369 44.5813 38.1022 40.5906C37.4764 38.1767 30.3014 39.5146 28.6925 39.8977C26.7104 40.3696 25.8043 40.9789 25.8539 39.0931C25.9241 36.427 25.9615 33.6756 24.7588 31.2256C22.7641 27.1624 19.158 22.208 15.2149 19.8713C13.9493 19.1213 9.28046 17.2107 8.75551 19.6255C8.32185 21.6203 8.85862 23.4414 8.06263 20.1395C7.02776 15.8467 5.45781 10.8451 1.31266 8.58412C-0.277168 7.71694 -3.22631 7.55424 -4.52092 6.25963C-6.00574 4.77481 -6.89188 3.06117 -9.05815 2.34823C-9.9744 2.04667 -13.5118 1.57991 -14.1542 2.77289C-14.8039 3.9796 -14.8825 6.04099 -15.1823 7.35483C-15.7793 9.97104 -16.267 12.6096 -16.881 15.2223C-17.0757 16.0511 -17.6256 22.1795 -19.4066 21.19C-20.2106 20.7434 -21.0445 21.0251 -21.7982 21.3912C-24.1824 22.5492 -25.6393 23.8984 -27.2518 26.0625C-28.6127 27.8891 -29.6666 29.9135 -30.6044 31.9855C-30.9273 32.6988 -31.1169 33.8974 -31.6772 34.4888C-32.0055 34.8353 -34.4962 32.7796 -35.1863 32.7007C-37.4246 32.4449 -40.8442 32.5765 -42.4504 34.4441C-44.8996 37.292 -44.8775 41.1323 -44.9537 44.6361C-44.989 46.2615 -45.8918 44.6492 -46.5406 44.122C-47.8733 43.0392 -48.2901 42.7139 -50.0944 42.7139C-50.8953 42.7139 -53 42.2064 -53 43.3398C-53 44.6059 -52.8719 45.7527 -52.6871 47.0053C-52.3315 49.4156 -51.5358 50.8542 -50.005 52.7495C-49.5973 53.2542 -48.9292 53.627 -48.6639 54.1576C-48.1797 55.126 -48.1722 56.1193 -48.1722 57.175C-48.1722 59.365 -47.8563 61.3755 -47.5464 63.545C-47.2906 65.3358 -46.5932 67.6575 -48.798 67.6575C-50.0644 67.6575 -52.0739 67.7898 -52.5083 69.2668C-53.1862 71.5718 -50.4541 73.2931 -48.6639 73.9158C-46.0273 74.8328 -41.7316 74.0946 -38.9189 74.0946C-38.0783 74.0946 -34.5574 74.0595 -37.0862 74.5192C-37.944 74.6752 -37.7303 75.8876 -37.712 76.5085Z" fill="#89CE09" stroke="#131313" stroke-width="3" stroke-linecap="round"/>
</svg>
