<svg width="290" height="77" viewBox="0 0 290 77" fill="none" xmlns="http://www.w3.org/2000/svg">
<path d="M71.3817 5.87799C65.5923 8.95155 57.5696 14.3079 57.1904 21.5432C52.5267 23.5773 48.7135 18.1155 43.4618 17.8403C37.8289 17.545 31.7381 14.15 26.7588 18.1804C20.7766 23.0225 26.581 32.7958 23.2545 38.6598C22.0689 40.7499 14.9947 39.2214 12.9544 39.1145C7.75415 38.842 6.52315 41.2274 3.80385 45.0438C2.10487 47.4282 2.0561 55.6272 2.78025 58.2499C3.72765 61.6812 9.18169 60.7953 11.8109 60.9331C19.9593 61.3602 28.3013 65.3687 34.2375 70.5063C38.4222 74.1279 51.0723 69.5206 54.8806 66.671C59.2958 63.3673 65.764 60.7772 71.2519 61.0649C76.3311 61.331 80.2248 64.1417 84.6822 66.2439C88.0806 67.8466 90.7272 71.0358 94.3659 71.2265C102.999 71.679 113.556 72.4987 120.463 66.6274C125.895 62.0108 137.199 63.634 143.146 66.0481C146.051 67.2276 147.301 70.0503 150.037 71.6027C153.469 73.5494 159.795 72.7815 163.449 71.8636C169.633 70.31 177.335 66.6244 183.596 66.9526C187.695 67.1674 191.076 68.4133 194.886 69.7542C198.212 70.9248 200.47 74.7983 204.059 74.9863C207.171 75.1495 210.056 74.9597 212.813 73.4562C215.516 71.982 218.705 68.9434 221.335 67.9359C224.433 66.7487 225.004 64.9255 228.929 65.3504C231.338 65.6113 232.83 67.5943 234.955 68.4287C242.268 71.2998 249.485 73.6143 253.044 64.8463C254.844 60.4121 257.008 50.9103 263.48 51.2495C269.07 51.5425 281.765 54.6295 286.394 50.4614C290.079 47.1442 287.638 33.7911 286.491 29.6377C284.594 22.7671 272.262 24.8588 266.426 24.5529C258.617 24.1437 255.228 22.2637 250.916 15.8395C248.83 12.7326 241.435 2.35911 237.71 2.16387C233.704 1.95394 230.778 3.7158 226.932 4.36145C220.393 5.4591 213.954 7.11706 208.154 10.5597C205.34 12.2296 203.804 15.7084 201.1 17.5934C196.718 20.6477 192.504 21.6733 187.254 21.3982C180.743 21.0569 175.447 17.4572 173.327 10.9445C170.966 3.69619 157.18 4.90487 151.118 4.58716C143.925 4.21018 139.506 6.61618 133.37 10.1211C129.745 12.1914 125.219 18.9058 120.975 18.9191C117.369 18.9304 113.721 18.5389 110.121 18.3502C102.546 17.9533 99.2406 8.67361 93.3565 5.09593C88.3393 2.04533 76.2692 3.2832 71.3817 5.87799Z" fill="#F3F3F3" stroke="#131313" stroke-width="3" stroke-linecap="round"/>
</svg>
