<svg width="1440" height="158" viewBox="0 0 1440 158" fill="none" xmlns="http://www.w3.org/2000/svg">
<path d="M442.382 15.878C436.592 18.9516 428.57 24.3079 428.19 31.5432C423.527 33.5773 419.713 28.1155 414.462 27.8403C408.829 27.545 402.738 24.15 397.759 28.1804C391.777 33.0225 397.581 42.7958 394.255 48.6598C393.069 50.7499 385.995 49.2214 383.954 49.1145C378.754 48.842 377.523 51.2274 374.804 55.0438C373.105 57.4282 373.056 65.6272 373.78 68.2499C374.728 71.6812 380.182 70.7953 382.811 70.9331C390.959 71.3602 399.301 75.3687 405.238 80.5063C409.422 84.1279 422.072 79.5206 425.881 76.671C430.296 73.3673 436.764 70.7772 442.252 71.0649C447.331 71.331 451.225 74.1417 455.682 76.2439C459.081 77.8466 461.727 81.0358 465.366 81.2265C473.999 81.679 484.556 82.4987 491.463 76.6274C496.895 72.0108 508.199 73.634 514.146 76.0481C517.051 77.2276 518.301 80.0503 521.037 81.6027C524.469 83.5494 530.795 82.7815 534.449 81.8636C540.633 80.31 548.335 76.6244 554.596 76.9526C558.695 77.1674 562.076 78.4133 565.886 79.7542C569.212 80.9248 571.47 84.7983 575.059 84.9863C578.171 85.1495 581.056 84.9597 583.813 83.4562C586.516 81.982 589.705 78.9434 592.335 77.9359C595.433 76.7487 596.004 74.9255 599.929 75.3504C602.338 75.6113 603.83 77.5943 605.955 78.4287C613.268 81.2998 620.485 83.6143 624.044 74.8463C625.844 70.4121 628.008 60.9103 634.48 61.2495C640.07 61.5425 652.765 64.6295 657.394 60.4614C661.079 57.1442 658.638 43.7911 657.491 39.6377C655.594 32.7671 643.262 34.8588 637.426 34.5529C629.617 34.1437 626.228 32.2637 621.916 25.8395C619.83 22.7326 612.435 12.3591 608.71 12.1639C604.704 11.9539 601.778 13.7158 597.932 14.3615C591.393 15.4591 584.954 17.1171 579.154 20.5597C576.34 22.2296 574.804 25.7084 572.1 27.5934C567.718 30.6477 563.504 31.6733 558.254 31.3982C551.743 31.0569 546.447 27.4572 544.327 20.9445C541.966 13.6962 528.18 14.9049 522.118 14.5872C514.925 14.2102 510.506 16.6162 504.37 20.1211C500.745 22.1914 496.219 28.9058 491.975 28.9191C488.369 28.9304 484.721 28.5389 481.121 28.3502C473.546 27.9533 470.241 18.6736 464.356 15.0959C459.339 12.0453 447.269 13.2832 442.382 15.878Z" fill="#F3F3F3" stroke="#131313" stroke-width="3" stroke-linecap="round"/>
<path d="M-64.6183 78.878C-70.4077 81.9516 -78.4304 87.3079 -78.8096 94.5432C-83.4733 96.5773 -87.2865 91.1155 -92.5382 90.8403C-98.1711 90.545 -104.262 87.15 -109.241 91.1804C-115.223 96.0225 -109.419 105.796 -112.745 111.66C-113.931 113.75 -121.005 112.221 -123.046 112.114C-128.246 111.842 -129.477 114.227 -132.196 118.044C-133.895 120.428 -133.944 128.627 -133.22 131.25C-132.272 134.681 -126.818 133.795 -124.189 133.933C-116.041 134.36 -107.699 138.369 -101.762 143.506C-97.5778 147.128 -84.9277 142.521 -81.1194 139.671C-76.7042 136.367 -70.236 133.777 -64.7481 134.065C-59.6689 134.331 -55.7752 137.142 -51.3178 139.244C-47.9194 140.847 -45.2728 144.036 -41.6341 144.227C-33.0006 144.679 -22.4443 145.499 -15.5366 139.627C-10.1051 135.011 1.19855 136.634 7.14581 139.048C10.0515 140.228 11.3005 143.05 14.0371 144.603C17.4687 146.549 23.7952 145.782 27.4489 144.864C33.6329 143.31 41.3351 139.624 47.5959 139.953C51.6948 140.167 55.0757 141.413 58.8856 142.754C62.2117 143.925 64.4704 147.798 68.0589 147.986C71.1712 148.149 74.0565 147.96 76.8132 146.456C79.5161 144.982 82.7049 141.943 85.3346 140.936C88.4335 139.749 89.0039 137.925 92.9287 138.35C95.3378 138.611 96.8298 140.594 98.9553 141.429C106.268 144.3 113.485 146.614 117.044 137.846C118.844 133.412 121.008 123.91 127.48 124.249C133.07 124.542 145.765 127.63 150.394 123.461C154.079 120.144 151.638 106.791 150.491 102.638C148.594 95.7671 136.262 97.8588 130.426 97.5529C122.617 97.1437 119.228 95.2637 114.916 88.8395C112.83 85.7326 105.435 75.3591 101.71 75.1639C97.704 74.9539 94.778 76.7158 90.9316 77.3615C84.3925 78.4591 77.954 80.1171 72.1536 83.5597C69.34 85.2296 67.8045 88.7084 65.0999 90.5934C60.7175 93.6477 56.5036 94.6733 51.254 94.3982C44.7432 94.0569 39.4475 90.4572 37.3266 83.9445C34.9663 76.6962 21.1805 77.9049 15.1183 77.5872C7.92501 77.2102 3.50562 79.6162 -2.63043 83.1211C-6.25481 85.1914 -10.7807 91.9058 -15.0253 91.9191C-18.6307 91.9304 -22.279 91.5389 -25.8795 91.3502C-33.4537 90.9533 -36.7594 81.6736 -42.6435 78.0959C-47.6607 75.0453 -59.7308 76.2832 -64.6183 78.878Z" fill="#F3F3F3" stroke="#131313" stroke-width="3" stroke-linecap="round"/>
<path d="M909.382 71.878C903.592 74.9516 895.57 80.3079 895.19 87.5432C890.527 89.5773 886.713 84.1155 881.462 83.8403C875.829 83.545 869.738 80.15 864.759 84.1804C858.777 89.0225 864.581 98.7958 861.255 104.66C860.069 106.75 852.995 105.221 850.954 105.114C845.754 104.842 844.523 107.227 841.804 111.044C840.105 113.428 840.056 121.627 840.78 124.25C841.728 127.681 847.182 126.795 849.811 126.933C857.959 127.36 866.301 131.369 872.238 136.506C876.422 140.128 889.072 135.521 892.881 132.671C897.296 129.367 903.764 126.777 909.252 127.065C914.331 127.331 918.225 130.142 922.682 132.244C926.081 133.847 928.727 137.036 932.366 137.227C940.999 137.679 951.556 138.499 958.463 132.627C963.895 128.011 975.199 129.634 981.146 132.048C984.051 133.228 985.301 136.05 988.037 137.603C991.469 139.549 997.795 138.782 1001.45 137.864C1007.63 136.31 1015.34 132.624 1021.6 132.953C1025.69 133.167 1029.08 134.413 1032.89 135.754C1036.21 136.925 1038.47 140.798 1042.06 140.986C1045.17 141.149 1048.06 140.96 1050.81 139.456C1053.52 137.982 1056.7 134.943 1059.33 133.936C1062.43 132.749 1063 130.925 1066.93 131.35C1069.34 131.611 1070.83 133.594 1072.96 134.429C1080.27 137.3 1087.48 139.614 1091.04 130.846C1092.84 126.412 1095.01 116.91 1101.48 117.249C1107.07 117.542 1119.77 120.63 1124.39 116.461C1128.08 113.144 1125.64 99.7911 1124.49 95.6377C1122.59 88.7671 1110.26 90.8588 1104.43 90.5529C1096.62 90.1437 1093.23 88.2637 1088.92 81.8395C1086.83 78.7326 1079.44 68.3591 1075.71 68.1639C1071.7 67.9539 1068.78 69.7158 1064.93 70.3615C1058.39 71.4591 1051.95 73.1171 1046.15 76.5597C1043.34 78.2296 1041.8 81.7084 1039.1 83.5934C1034.72 86.6477 1030.5 87.6733 1025.25 87.3982C1018.74 87.0569 1013.45 83.4572 1011.33 76.9445C1008.97 69.6962 995.18 70.9049 989.118 70.5872C981.925 70.2102 977.506 72.6162 971.37 76.1211C967.745 78.1914 963.219 84.9058 958.975 84.9191C955.369 84.9304 951.721 84.5389 948.121 84.3502C940.546 83.9533 937.241 74.6736 931.356 71.0959C926.339 68.0453 914.269 69.2832 909.382 71.878Z" fill="#F3F3F3" stroke="#131313" stroke-width="3" stroke-linecap="round"/>
<path d="M1399.38 15.878C1393.59 18.9516 1385.57 24.3079 1385.19 31.5432C1380.53 33.5773 1376.71 28.1155 1371.46 27.8403C1365.83 27.545 1359.74 24.15 1354.76 28.1804C1348.78 33.0225 1354.58 42.7958 1351.25 48.6598C1350.07 50.7499 1342.99 49.2214 1340.95 49.1145C1335.75 48.842 1334.52 51.2274 1331.8 55.0438C1330.1 57.4282 1330.06 65.6272 1330.78 68.2499C1331.73 71.6812 1337.18 70.7953 1339.81 70.9331C1347.96 71.3602 1356.3 75.3687 1362.24 80.5063C1366.42 84.1279 1379.07 79.5206 1382.88 76.671C1387.3 73.3673 1393.76 70.7772 1399.25 71.0649C1404.33 71.331 1408.22 74.1417 1412.68 76.2439C1416.08 77.8466 1418.73 81.0358 1422.37 81.2265C1431 81.679 1441.56 82.4987 1448.46 76.6274C1453.89 72.0108 1465.2 73.634 1471.15 76.0481C1474.05 77.2276 1475.3 80.0503 1478.04 81.6027C1481.47 83.5494 1487.8 82.7815 1491.45 81.8636C1497.63 80.31 1505.34 76.6244 1511.6 76.9526C1515.69 77.1674 1519.08 78.4133 1522.89 79.7542C1526.21 80.9248 1528.47 84.7983 1532.06 84.9863C1535.17 85.1495 1538.06 84.9597 1540.81 83.4562C1543.52 81.982 1546.7 78.9434 1549.33 77.9359C1552.43 76.7487 1553 74.9255 1556.93 75.3504C1559.34 75.6113 1560.83 77.5943 1562.96 78.4287C1570.27 81.2998 1577.48 83.6143 1581.04 74.8463C1582.84 70.4121 1585.01 60.9103 1591.48 61.2495C1597.07 61.5425 1609.77 64.6295 1614.39 60.4614C1618.08 57.1442 1615.64 43.7911 1614.49 39.6377C1612.59 32.7671 1600.26 34.8588 1594.43 34.5529C1586.62 34.1437 1583.23 32.2637 1578.92 25.8395C1576.83 22.7326 1569.44 12.3591 1565.71 12.1639C1561.7 11.9539 1558.78 13.7158 1554.93 14.3615C1548.39 15.4591 1541.95 17.1171 1536.15 20.5597C1533.34 22.2296 1531.8 25.7084 1529.1 27.5934C1524.72 30.6477 1520.5 31.6733 1515.25 31.3982C1508.74 31.0569 1503.45 27.4572 1501.33 20.9445C1498.97 13.6962 1485.18 14.9049 1479.12 14.5872C1471.93 14.2102 1467.51 16.6162 1461.37 20.1211C1457.75 22.1914 1453.22 28.9058 1448.97 28.9191C1445.37 28.9304 1441.72 28.5389 1438.12 28.3502C1430.55 27.9533 1427.24 18.6736 1421.36 15.0959C1416.34 12.0453 1404.27 13.2832 1399.38 15.878Z" fill="#F3F3F3" stroke="#131313" stroke-width="3" stroke-linecap="round"/>
</svg>
