<svg width="364" height="170" viewBox="0 0 364 170" fill="none" xmlns="http://www.w3.org/2000/svg">
<path d="M6.88713 155.182C5.68192 157.793 3.3265 159.689 3.3265 162.663C2.35513 163.149 1.20653 164.761 2.76641 164.824C4.9184 164.91 7.09336 164.824 9.24754 164.824H55.4956C61.7151 164.824 68.0762 164.437 74.2589 165.224C80.587 166.029 86.6131 166.984 93.0222 166.984H136.75C151.874 166.984 167.031 167.704 182.238 167.704H220.645C228.13 167.704 235.515 166.356 242.968 166.264C250.339 166.173 258.206 167.118 265.492 165.904C274.613 164.384 284.665 165.544 293.897 165.544H322.502C330.855 165.544 339.611 166.456 347.707 163.943C350.053 163.215 352.964 163.145 355.068 161.943C356.538 161.103 357.999 159.135 359.429 158.022C362.576 155.575 362.245 151.606 361.917 147.669L361.909 147.581C361.347 140.831 355.149 134.979 350.667 130.498C342.207 122.037 332.89 113.845 322.822 107.374C308.532 98.1868 283.502 91.0469 280.735 71.3673C278.932 58.5449 282.015 45.2556 279.855 32.4005C277.151 16.3136 260.051 9.25195 246.289 4.99566C234.212 1.26048 221.697 2.07515 209.202 2.07515C194.895 2.07515 180.806 2.7569 166.835 6.03585C158.91 7.89573 151.643 10.2378 144.111 13.2771C136.183 16.4761 128.855 21.8241 121.347 25.9193C105.13 34.765 88.7781 46.1622 75.059 58.605C66.1505 66.6849 58.8747 75.8508 51.0148 84.8896C42.9242 94.1938 36.0278 104.163 29.251 114.415C23.9651 122.411 18.832 129.987 15.2086 138.939C13.6032 142.905 12.2067 147.257 10.1677 151.021C9.30739 152.609 7.63553 153.56 6.88713 155.182Z" fill="#128D06" stroke="#131313" stroke-width="3" stroke-linecap="round"/>
<path d="M233.809 53.0324C235.934 54.0646 237.916 53.9107 240.25 53.9107C242.312 53.3952 246.869 53.7125 246.983 50.6253C247.144 46.272 246.229 39.3904 240.64 39.2727C236.973 39.1956 230.99 37.9971 228.474 41.3221C227.062 43.1888 226.124 47.1884 228.247 48.9989C230.102 50.5812 231.547 51.9338 233.809 53.0324Z" fill="#131313" stroke="#131313" stroke-width="3" stroke-linecap="round"/>
<path d="M251.426 74.1211C252.807 74.792 254.095 74.692 255.612 74.692C256.953 74.3569 259.915 74.5631 259.989 72.5564C260.094 69.7268 259.499 65.2538 255.866 65.1773C253.483 65.1271 249.594 64.3481 247.958 66.5093C247.04 67.7227 246.431 70.3224 247.81 71.4993C249.016 72.5278 249.956 73.407 251.426 74.1211Z" fill="#131313" stroke="#131313" stroke-width="3" stroke-linecap="round"/>
</svg>
