<svg viewBox='0 0 42 89' xmlns='http://www.w3.org/2000/svg'>
  <symbol id='bush' viewBox='0 0 42 89'>
    <path d="M-37.712 76.5085C-37.5984 80.3697 -30.6274 78.9224 -28.0564 78.9224C-28.0564 79.9331 -27.4229 81.4828 -26.0225 81.7162C-24.5814 81.9564 -24.5809 82.9455 -23.0275 82.9455C-21.0085 82.9455 -16.5556 83.0838 -15.0035 84.3536C-11.6638 87.0861 -8.78925 84.8246 -5.75022 82.3644C-4.46854 81.3269 -3.93012 81.8682 -2.66579 82.722C0.515926 84.8707 3.70242 87.371 7.72737 87.371C12.2379 87.371 14.0954 82.8223 17.9417 80.8222C19.1202 80.2094 19.1969 80.6886 19.9086 81.4257C22.5173 84.1275 25.0868 84.4214 28.8043 83.9066C32.0016 83.4639 38.7911 80.7555 39.4656 76.9332C39.7869 75.1124 38.5614 74.1097 38.5045 72.5747C38.4457 70.9859 39.8231 69.3808 39.9127 67.6799C40.1491 63.1877 37.0787 62.297 33.945 59.8347C31.0278 57.5427 39.3331 54.5911 39.108 53.353C38.3586 49.2313 39.1369 44.5813 38.1022 40.5906C37.4764 38.1767 30.3014 39.5146 28.6925 39.8977C26.7104 40.3696 25.8043 40.9789 25.8539 39.0931C25.9241 36.427 25.9615 33.6756 24.7588 31.2256C22.7641 27.1624 19.158 22.208 15.2149 19.8713C13.9493 19.1213 9.28046 17.2107 8.75551 19.6255C8.32185 21.6203 8.85862 23.4414 8.06263 20.1395C7.02776 15.8467 5.45781 10.8451 1.31266 8.58412C-0.277168 7.71694 -3.22631 7.55424 -4.52092 6.25963C-6.00574 4.77481 -6.89188 3.06117 -9.05815 2.34823C-9.9744 2.04667 -13.5118 1.57991 -14.1542 2.77289C-14.8039 3.9796 -14.8825 6.04099 -15.1823 7.35483C-15.7793 9.97104 -16.267 12.6096 -16.881 15.2223C-17.0757 16.0511 -17.6256 22.1795 -19.4066 21.19C-20.2106 20.7434 -21.0445 21.0251 -21.7982 21.3912C-24.1824 22.5492 -25.6393 23.8984 -27.2518 26.0625C-28.6127 27.8891 -29.6666 29.9135 -30.6044 31.9855C-30.9273 32.6988 -31.1169 33.8974 -31.6772 34.4888C-32.0055 34.8353 -34.4962 32.7796 -35.1863 32.7007C-37.4246 32.4449 -40.8442 32.5765 -42.4504 34.4441C-44.8996 37.292 -44.8775 41.1323 -44.9537 44.6361C-44.989 46.2615 -45.8918 44.6492 -46.5406 44.122C-47.8733 43.0392 -48.2901 42.7139 -50.0944 42.7139C-50.8953 42.7139 -53 42.2064 -53 43.3398C-53 44.6059 -52.8719 45.7527 -52.6871 47.0053C-52.3315 49.4156 -51.5358 50.8542 -50.005 52.7495C-49.5973 53.2542 -48.9292 53.627 -48.6639 54.1576C-48.1797 55.126 -48.1722 56.1193 -48.1722 57.175C-48.1722 59.365 -47.8563 61.3755 -47.5464 63.545C-47.2906 65.3358 -46.5932 67.6575 -48.798 67.6575C-50.0644 67.6575 -52.0739 67.7898 -52.5083 69.2668C-53.1862 71.5718 -50.4541 73.2931 -48.6639 73.9158C-46.0273 74.8328 -41.7316 74.0946 -38.9189 74.0946C-38.0783 74.0946 -34.5574 74.0595 -37.0862 74.5192C-37.944 74.6752 -37.7303 75.8876 -37.712 76.5085Z" stroke="#131313" stroke-width="3" stroke-linecap="round"/>
  </symbol>
  <symbol id='bush-dashes' viewBox="0 0 97 89">
    <path d="M17.288 76.5085C17.4016 80.3697 24.3726 78.9224 26.9436 78.9224C26.9436 79.9331 27.5771 81.4828 28.9775 81.7162C30.4186 81.9564 30.4191 82.9455 31.9725 82.9455C33.9915 82.9455 38.4444 83.0838 39.9965 84.3536C43.3362 87.0861 46.2108 84.8246 49.2498 82.3644C50.5315 81.3269 51.0699 81.8682 52.3342 82.722C55.5159 84.8707 58.7024 87.371 62.7274 87.371C67.2379 87.371 69.0954 82.8223 72.9417 80.8222C74.1202 80.2094 74.1969 80.6886 74.9086 81.4257C77.5173 84.1275 80.0868 84.4214 83.8043 83.9066C87.0016 83.4639 93.7911 80.7555 94.4656 76.9332C94.7869 75.1124 93.5614 74.1097 93.5045 72.5747C93.4457 70.9859 94.8231 69.3808 94.9127 67.6799C95.1491 63.1877 92.0787 62.297 88.945 59.8347C86.0278 57.5427 94.3331 54.5911 94.108 53.353C93.3586 49.2313 94.1369 44.5813 93.1022 40.5906C92.4764 38.1767 85.3014 39.5146 83.6925 39.8977C81.7104 40.3696 80.8043 40.9789 80.8539 39.0931C80.9241 36.427 80.9615 33.6756 79.7588 31.2256C77.7641 27.1624 74.158 22.208 70.2149 19.8713C68.9493 19.1213 64.2805 17.2107 63.7555 19.6255C63.3218 21.6203 63.8586 23.4414 63.0626 20.1395C62.0278 15.8467 60.4578 10.8451 56.3127 8.58412C54.7228 7.71694 51.7737 7.55424 50.4791 6.25963C48.9943 4.77481 48.1081 3.06117 45.9419 2.34823C45.0256 2.04667 41.4882 1.57991 40.8458 2.77289C40.1961 3.9796 40.1175 6.04099 39.8177 7.35483C39.2207 9.97104 38.733 12.6096 38.119 15.2223C37.9243 16.0511 37.3744 22.1795 35.5934 21.19C34.7894 20.7434 33.9555 21.0251 33.2018 21.3912C30.8176 22.5492 29.3607 23.8984 27.7482 26.0625C26.3873 27.8891 25.3334 29.9135 24.3956 31.9855C24.0727 32.6988 23.8831 33.8974 23.3228 34.4888C22.9945 34.8353 20.5038 32.7796 19.8137 32.7007C17.5754 32.4449 14.1558 32.5765 12.5496 34.4441C10.1004 37.292 10.1225 41.1323 10.0463 44.6361C10.011 46.2615 9.10816 44.6492 8.45941 44.122C7.12668 43.0392 6.70989 42.7139 4.90562 42.7139C4.10471 42.7139 2 42.2064 2 43.3398C2 44.6059 2.1281 45.7527 2.31291 47.0053C2.66853 49.4156 3.4642 50.8542 4.99502 52.7495C5.40268 53.2542 6.07077 53.627 6.33607 54.1576C6.82026 55.126 6.82779 56.1193 6.82779 57.175C6.82779 59.365 7.1437 61.3755 7.45362 63.545C7.70944 65.3358 8.40676 67.6575 6.20197 67.6575C4.9356 67.6575 2.92614 67.7898 2.49172 69.2668C1.81377 71.5718 4.54587 73.2931 6.33607 73.9158C8.97265 74.8328 13.2684 74.0946 16.0811 74.0946C16.9217 74.0946 20.4426 74.0595 17.9138 74.5192C17.056 74.6752 17.2697 75.8876 17.288 76.5085Z" stroke="#131313" stroke-width="3" stroke-linecap="round"/>
    <path d="M56 30C59.6607 30 63.4632 34.5033 65.6514 37.2385" stroke="#131313" stroke-width="3" stroke-linecap="round"/>
    <path d="M42.6484 34C38.9877 34 35.1853 38.5033 32.9971 41.2385" stroke="#131313" stroke-width="3" stroke-linecap="round"/>
  </symbol>
  <symbol id='cloud' viewBox="0 0 290 77">
    <path d="M71.3817 5.87799C65.5923 8.95155 57.5696 14.3079 57.1904 21.5432C52.5267 23.5773 48.7135 18.1155 43.4618 17.8403C37.8289 17.545 31.7381 14.15 26.7588 18.1804C20.7766 23.0225 26.581 32.7958 23.2545 38.6598C22.0689 40.7499 14.9947 39.2214 12.9544 39.1145C7.75415 38.842 6.52315 41.2274 3.80385 45.0438C2.10487 47.4282 2.0561 55.6272 2.78025 58.2499C3.72765 61.6812 9.18169 60.7953 11.8109 60.9331C19.9593 61.3602 28.3013 65.3687 34.2375 70.5063C38.4222 74.1279 51.0723 69.5206 54.8806 66.671C59.2958 63.3673 65.764 60.7772 71.2519 61.0649C76.3311 61.331 80.2248 64.1417 84.6822 66.2439C88.0806 67.8466 90.7272 71.0358 94.3659 71.2265C102.999 71.679 113.556 72.4987 120.463 66.6274C125.895 62.0108 137.199 63.634 143.146 66.0481C146.051 67.2276 147.301 70.0503 150.037 71.6027C153.469 73.5494 159.795 72.7815 163.449 71.8636C169.633 70.31 177.335 66.6244 183.596 66.9526C187.695 67.1674 191.076 68.4133 194.886 69.7542C198.212 70.9248 200.47 74.7983 204.059 74.9863C207.171 75.1495 210.056 74.9597 212.813 73.4562C215.516 71.982 218.705 68.9434 221.335 67.9359C224.433 66.7487 225.004 64.9255 228.929 65.3504C231.338 65.6113 232.83 67.5943 234.955 68.4287C242.268 71.2998 249.485 73.6143 253.044 64.8463C254.844 60.4121 257.008 50.9103 263.48 51.2495C269.07 51.5425 281.765 54.6295 286.394 50.4614C290.079 47.1442 287.638 33.7911 286.491 29.6377C284.594 22.7671 272.262 24.8588 266.426 24.5529C258.617 24.1437 255.228 22.2637 250.916 15.8395C248.83 12.7326 241.435 2.35911 237.71 2.16387C233.704 1.95394 230.778 3.7158 226.932 4.36145C220.393 5.4591 213.954 7.11706 208.154 10.5597C205.34 12.2296 203.804 15.7084 201.1 17.5934C196.718 20.6477 192.504 21.6733 187.254 21.3982C180.743 21.0569 175.447 17.4572 173.327 10.9445C170.966 3.69619 157.18 4.90487 151.118 4.58716C143.925 4.21018 139.506 6.61618 133.37 10.1211C129.745 12.1914 125.219 18.9058 120.975 18.9191C117.369 18.9304 113.721 18.5389 110.121 18.3502C102.546 17.9533 99.2406 8.67361 93.3565 5.09593C88.3393 2.04533 76.2692 3.2832 71.3817 5.87799Z" stroke="#131313" stroke-width="3" stroke-linecap="round"/>
  </symbol>
  <symbol id='large-bush' viewBox="0 0 364 170">
    <path d="M6.88713 155.182C5.68192 157.793 3.3265 159.689 3.3265 162.663C2.35513 163.149 1.20653 164.761 2.76641 164.824C4.9184 164.91 7.09336 164.824 9.24754 164.824H55.4956C61.7151 164.824 68.0762 164.437 74.2589 165.224C80.587 166.029 86.6131 166.984 93.0222 166.984H136.75C151.874 166.984 167.031 167.704 182.238 167.704H220.645C228.13 167.704 235.515 166.356 242.968 166.264C250.339 166.173 258.206 167.118 265.492 165.904C274.613 164.384 284.665 165.544 293.897 165.544H322.502C330.855 165.544 339.611 166.456 347.707 163.943C350.053 163.215 352.964 163.145 355.068 161.943C356.538 161.103 357.999 159.135 359.429 158.022C362.576 155.575 362.245 151.606 361.917 147.669L361.909 147.581C361.347 140.831 355.149 134.979 350.667 130.498C342.207 122.037 332.89 113.845 322.822 107.374C308.532 98.1868 283.502 91.0469 280.735 71.3673C278.932 58.5449 282.015 45.2556 279.855 32.4005C277.151 16.3136 260.051 9.25195 246.289 4.99566C234.212 1.26048 221.697 2.07515 209.202 2.07515C194.895 2.07515 180.806 2.7569 166.835 6.03585C158.91 7.89573 151.643 10.2378 144.111 13.2771C136.183 16.4761 128.855 21.8241 121.347 25.9193C105.13 34.765 88.7781 46.1622 75.059 58.605C66.1505 66.6849 58.8747 75.8508 51.0148 84.8896C42.9242 94.1938 36.0278 104.163 29.251 114.415C23.9651 122.411 18.832 129.987 15.2086 138.939C13.6032 142.905 12.2067 147.257 10.1677 151.021C9.30739 152.609 7.63553 153.56 6.88713 155.182Z" stroke="#131313" stroke-width="3" stroke-linecap="round"/>
    <path d="M233.809 53.0324C235.934 54.0646 237.916 53.9107 240.25 53.9107C242.312 53.3952 246.869 53.7125 246.983 50.6253C247.144 46.272 246.229 39.3904 240.64 39.2727C236.973 39.1956 230.99 37.9971 228.474 41.3221C227.062 43.1888 226.124 47.1884 228.247 48.9989C230.102 50.5812 231.547 51.9338 233.809 53.0324Z" fill="#131313" stroke="#131313" stroke-width="3" stroke-linecap="round"/>
    <path d="M251.426 74.1211C252.807 74.792 254.095 74.692 255.612 74.692C256.953 74.3569 259.915 74.5631 259.989 72.5564C260.094 69.7268 259.499 65.2538 255.866 65.1773C253.483 65.1271 249.594 64.3481 247.958 66.5093C247.04 67.7227 246.431 70.3224 247.81 71.4993C249.016 72.5278 249.956 73.407 251.426 74.1211Z" fill="#131313" stroke="#131313" stroke-width="3" stroke-linecap="round"/>
  </symbol>
</svg>